# xmcd
#
# Track frame offsets: 
#        150
#        20528
#        44209
#        56874
#        74482
#        90266
#        102696
#        119333
#        140764
#        154170
#        168271
#        184581
#        196486
#        219135
#
# Disc length: 3577 seconds
#
# Revision: 0
# Processed by: cddbd v1.5.2PL0 Copyright (c) Steve Scherf et al.
# Submitted via: ExactAudioCopy v1.0b3
#
DISCID=d00df70e
DTITLE=Johnny Winter - Johnny Winter
DYEAR=1969
DGENRE=Blues
TTITLE0=I'm Yours And I'm Hers
TTITLE1=Be Careful With A Fool
TTITLE2=Dallas (Mono)
TTITLE3=Mean Mistreater
TTITLE4=Leland Mississippi Blues
TTITLE5=Good Morning Little School Girl
TTITLE6=When You Got a Good Friend
TTITLE7=I'll Drown In My Own Tears
TTITLE8=Back Door Friend
TTITLE9=Country Girl (Bonus Track)
TTITLE10=Dallas (Bonus Track)
TTITLE11=Two Steps From The Blues (Bouns Track)
TTITLE12=(Leland Mississippi Blues (Live At Woodstock 1969)
TTITLE13=Mean Town Blues (Live At Woodstock 1969)
EXTD=
EXTT0=
EXTT1=
EXTT2=
EXTT3=
EXTT4=
EXTT5=
EXTT6=
EXTT7=
EXTT8=
EXTT9=
EXTT10=
EXTT11=
EXTT12=
EXTT13=
PLAYORDER=
